<?xml version="1.0" encoding="UTF-8"?>
<mxfile host="app.diagrams.net" version="24.7.7">
  <diagram name="Shadow Block Creation Flow" id="shadow-block-flow">
    <mxGraphModel dx="1434" dy="794" grid="1" gridSize="10" guides="1" tooltips="1" connect="1" arrows="1" fold="1" page="1" pageScale="1" pageWidth="850" pageHeight="1100" math="0" shadow="0">
      <root>
        <mxCell id="0" />
        <mxCell id="1" parent="0" />
        
        <!-- Title -->
        <mxCell id="title" value="X-Axis Swimlane Block Creation Data Flow (Actual)" style="text;html=1;strokeColor=none;fillColor=none;align=center;verticalAlign=middle;whiteSpace=wrap;rounded=0;fontSize=20;fontStyle=1" parent="1" vertex="1">
          <mxGeometry x="225" y="20" width="400" height="30" as="geometry" />
        </mxCell>
        
        <!-- Entry Point -->
        <mxCell id="entry" value="UnifiedDataRenderer&lt;br&gt;renderEnhancedData()" style="rounded=1;whiteSpace=wrap;html=1;fillColor=#dae8fc;strokeColor=#6c8ebf;" parent="1" vertex="1">
          <mxGeometry x="340" y="80" width="170" height="60" as="geometry" />
        </mxCell>
        
        <!-- Create Swimlane Blocks -->
        <mxCell id="createSwimLane" value="UnifiedDataRenderer&lt;br&gt;createSwimLaneBlocks()&lt;br&gt;(private method)" style="rounded=1;whiteSpace=wrap;html=1;fillColor=#dae8fc;strokeColor=#6c8ebf;" parent="1" vertex="1">
          <mxGeometry x="320" y="180" width="210" height="60" as="geometry" />
        </mxCell>
        
        <!-- Arrow from Entry to createSwimLane -->
        <mxCell id="arrow1" style="edgeStyle=orthogonalEdgeStyle;rounded=0;orthogonalLoop=1;jettySize=auto;html=1;" parent="1" source="entry" target="createSwimLane" edge="1">
          <mxGeometry relative="1" as="geometry" />
        </mxCell>
        <mxCell id="arrow1Label" value="line 115" style="edgeLabel;html=1;align=center;verticalAlign=middle;resizable=0;points=[];" parent="arrow1" vertex="1" connectable="0">
          <mxGeometry x="-0.1" y="1" relative="1" as="geometry">
            <mxPoint as="offset" />
          </mxGeometry>
        </mxCell>
        
        <!-- Group Nodes by Type -->
        <mxCell id="groupNodes" value="Group nodes by X-axis property&lt;br&gt;Calculate bounds for each type" style="rounded=0;whiteSpace=wrap;html=1;fillColor=#fff2cc;strokeColor=#d6b656;" parent="1" vertex="1">
          <mxGeometry x="315" y="280" width="220" height="60" as="geometry" />
        </mxCell>
        
        <!-- Arrow to Group Nodes -->
        <mxCell id="arrow2" style="edgeStyle=orthogonalEdgeStyle;rounded=0;orthogonalLoop=1;jettySize=auto;html=1;" parent="1" source="createSwimLane" target="groupNodes" edge="1">
          <mxGeometry relative="1" as="geometry" />
        </mxCell>
        
        <!-- For Each Type Loop -->
        <mxCell id="forEachType" value="For each type in nodesByType" style="rhombus;whiteSpace=wrap;html=1;fillColor=#f8cecc;strokeColor=#b85450;" parent="1" vertex="1">
          <mxGeometry x="330" y="380" width="190" height="80" as="geometry" />
        </mxCell>
        
        <!-- Arrow to For Each -->
        <mxCell id="arrow3" style="edgeStyle=orthogonalEdgeStyle;rounded=0;orthogonalLoop=1;jettySize=auto;html=1;" parent="1" source="groupNodes" target="forEachType" edge="1">
          <mxGeometry relative="1" as="geometry" />
        </mxCell>
        
        <!-- Calculate Swimlane Width -->
        <mxCell id="calcWidth" value="Calculate swimlane width&lt;br&gt;nodeSpacing + hexagonWidth" style="rounded=0;whiteSpace=wrap;html=1;fillColor=#fff2cc;strokeColor=#d6b656;" parent="1" vertex="1">
          <mxGeometry x="325" y="500" width="200" height="60" as="geometry" />
        </mxCell>
        
        <!-- Arrow to Calculate Width -->
        <mxCell id="arrow4" style="edgeStyle=orthogonalEdgeStyle;rounded=0;orthogonalLoop=1;jettySize=auto;html=1;" parent="1" source="forEachType" target="calcWidth" edge="1">
          <mxGeometry relative="1" as="geometry" />
        </mxCell>
        
        <!-- Person Type Check -->
        <mxCell id="personCheck" value="Is Person Type?&lt;br&gt;[man, woman, child, grandparent]" style="rhombus;whiteSpace=wrap;html=1;fillColor=#f8cecc;strokeColor=#b85450;" parent="1" vertex="1">
          <mxGeometry x="315" y="600" width="220" height="80" as="geometry" />
        </mxCell>
        
        <!-- Arrow to Person Check -->
        <mxCell id="arrow5" style="edgeStyle=orthogonalEdgeStyle;rounded=0;orthogonalLoop=1;jettySize=auto;html=1;" parent="1" source="calcWidth" target="personCheck" edge="1">
          <mxGeometry relative="1" as="geometry" />
        </mxCell>
        
        <!-- Buffer Values -->
        <mxCell id="personBuffer" value="xBuffer = 20" style="rounded=0;whiteSpace=wrap;html=1;fillColor=#e1d5e7;strokeColor=#9673a6;" parent="1" vertex="1">
          <mxGeometry x="160" y="720" width="120" height="40" as="geometry" />
        </mxCell>
        
        <mxCell id="regularBuffer" value="xBuffer = 0" style="rounded=0;whiteSpace=wrap;html=1;fillColor=#e1d5e7;strokeColor=#9673a6;" parent="1" vertex="1">
          <mxGeometry x="570" y="720" width="120" height="40" as="geometry" />
        </mxCell>
        
        <!-- Arrows from Person Check -->
        <mxCell id="arrow6" style="edgeStyle=orthogonalEdgeStyle;rounded=0;orthogonalLoop=1;jettySize=auto;html=1;" parent="1" source="personCheck" target="personBuffer" edge="1">
          <mxGeometry relative="1" as="geometry" />
        </mxCell>
        <mxCell id="arrow6Label" value="Yes" style="edgeLabel;html=1;align=center;verticalAlign=middle;resizable=0;points=[];" parent="arrow6" vertex="1" connectable="0">
          <mxGeometry x="-0.3" y="-1" relative="1" as="geometry">
            <mxPoint as="offset" />
          </mxGeometry>
        </mxCell>
        
        <mxCell id="arrow7" style="edgeStyle=orthogonalEdgeStyle;rounded=0;orthogonalLoop=1;jettySize=auto;html=1;" parent="1" source="personCheck" target="regularBuffer" edge="1">
          <mxGeometry relative="1" as="geometry" />
        </mxCell>
        <mxCell id="arrow7Label" value="No" style="edgeLabel;html=1;align=center;verticalAlign=middle;resizable=0;points=[];" parent="arrow7" vertex="1" connectable="0">
          <mxGeometry x="-0.3" y="1" relative="1" as="geometry">
            <mxPoint as="offset" />
          </mxGeometry>
        </mxCell>
        
        <!-- Final Width Calculation -->
        <mxCell id="finalWidth" value="blockWidth = swimlaneWidth + (xBuffer * 2)&lt;br&gt;blockDepth = shadowDimensions.depth + SHADOW_BUFFER" style="rounded=0;whiteSpace=wrap;html=1;fillColor=#fff2cc;strokeColor=#d6b656;" parent="1" vertex="1">
          <mxGeometry x="280" y="800" width="290" height="60" as="geometry" />
        </mxCell>
        
        <!-- Arrows to Final Width -->
        <mxCell id="arrow8" style="edgeStyle=orthogonalEdgeStyle;rounded=0;orthogonalLoop=1;jettySize=auto;html=1;" parent="1" source="personBuffer" target="finalWidth" edge="1">
          <mxGeometry relative="1" as="geometry">
            <Array as="points">
              <mxPoint x="220" y="830" />
            </Array>
          </mxGeometry>
        </mxCell>
        
        <mxCell id="arrow9" style="edgeStyle=orthogonalEdgeStyle;rounded=0;orthogonalLoop=1;jettySize=auto;html=1;" parent="1" source="regularBuffer" target="finalWidth" edge="1">
          <mxGeometry relative="1" as="geometry">
            <Array as="points">
              <mxPoint x="630" y="830" />
            </Array>
          </mxGeometry>
        </mxCell>
        
        <!-- Create Swimlane Block -->
        <mxCell id="createBlock" value="createSwimLaneBlock()&lt;br&gt;(from blockCreatorAdapter)" style="rounded=1;whiteSpace=wrap;html=1;fillColor=#d5e8d4;strokeColor=#82b366;" parent="1" vertex="1">
          <mxGeometry x="335" y="900" width="180" height="60" as="geometry" />
        </mxCell>
        
        <!-- Arrow to Create Block -->
        <mxCell id="arrow10" style="edgeStyle=orthogonalEdgeStyle;rounded=0;orthogonalLoop=1;jettySize=auto;html=1;" parent="1" source="finalWidth" target="createBlock" edge="1">
          <mxGeometry relative="1" as="geometry" />
        </mxCell>
        
        <!-- Block Creator Adapter -->
        <mxCell id="adapter" value="BlockCreatorAdapter&lt;br&gt;createSwimLaneBlockAdapter()" style="rounded=1;whiteSpace=wrap;html=1;fillColor=#d5e8d4;strokeColor=#82b366;" parent="1" vertex="1">
          <mxGeometry x="320" y="1000" width="210" height="60" as="geometry" />
        </mxCell>
        
        <!-- Arrow to Adapter -->
        <mxCell id="arrow11" style="edgeStyle=orthogonalEdgeStyle;rounded=0;orthogonalLoop=1;jettySize=auto;html=1;" parent="1" source="createBlock" target="adapter" edge="1">
          <mxGeometry relative="1" as="geometry" />
        </mxCell>
        
        <!-- SwimLaneBlockCreator -->
        <mxCell id="swimlaneCreator" value="SwimLaneBlockCreator&lt;br&gt;createSwimLaneBlock()&lt;br&gt;(NOT createXAxisSwimLaneBlocks)" style="rounded=1;whiteSpace=wrap;html=1;fillColor=#d5e8d4;strokeColor=#82b366;" parent="1" vertex="1">
          <mxGeometry x="305" y="1100" width="240" height="60" as="geometry" />
        </mxCell>
        
        <!-- Arrow to SwimLaneBlockCreator -->
        <mxCell id="arrow12" style="edgeStyle=orthogonalEdgeStyle;rounded=0;orthogonalLoop=1;jettySize=auto;html=1;" parent="1" source="adapter" target="swimlaneCreator" edge="1">
          <mxGeometry relative="1" as="geometry" />
        </mxCell>
        
        <!-- Final Block -->
        <mxCell id="output" value="Swimlane Block Part&lt;br&gt;Name: XAxis_SwimLaneShadow_{type}&lt;br&gt;Size: Vector3(width, height, depth)" style="rounded=1;whiteSpace=wrap;html=1;fillColor=#f5f5f5;strokeColor=#666666;fontStyle=1;" parent="1" vertex="1">
          <mxGeometry x="320" y="1200" width="210" height="80" as="geometry" />
        </mxCell>
        
        <!-- Arrow to Output -->
        <mxCell id="arrow13" style="edgeStyle=orthogonalEdgeStyle;rounded=0;orthogonalLoop=1;jettySize=auto;html=1;" parent="1" source="swimlaneCreator" target="output" edge="1">
          <mxGeometry relative="1" as="geometry" />
        </mxCell>
        
        <!-- Loop Back -->
        <mxCell id="loopBack" style="edgeStyle=orthogonalEdgeStyle;rounded=0;orthogonalLoop=1;jettySize=auto;html=1;dashed=1;" parent="1" source="output" target="forEachType" edge="1">
          <mxGeometry relative="1" as="geometry">
            <Array as="points">
              <mxPoint x="700" y="1240" />
              <mxPoint x="700" y="420" />
            </Array>
          </mxGeometry>
        </mxCell>
        <mxCell id="loopLabel" value="Next Type" style="edgeLabel;html=1;align=center;verticalAlign=middle;resizable=0;points=[];" parent="loopBack" vertex="1" connectable="0">
          <mxGeometry x="0.5" y="-1" relative="1" as="geometry">
            <mxPoint as="offset" />
          </mxGeometry>
        </mxCell>
        
        <!-- Important Note -->
        <mxCell id="note1" value="IMPORTANT: The createXAxisSwimLaneBlocks method&lt;br&gt;in SwimLaneBlockCreator is NOT used by UnifiedDataRenderer.&lt;br&gt;The person type buffer logic must be in UnifiedDataRenderer." style="text;html=1;strokeColor=#d6b656;fillColor=#fff2cc;align=left;verticalAlign=top;whiteSpace=wrap;rounded=1;fontSize=11;fontStyle=1;" parent="1" vertex="1">
          <mxGeometry x="40" y="1000" width="240" height="80" as="geometry" />
        </mxCell>
        
        <!-- Legend -->
        <mxCell id="legendTitle" value="Legend" style="text;html=1;strokeColor=none;fillColor=none;align=left;verticalAlign=middle;whiteSpace=wrap;rounded=0;fontSize=14;fontStyle=1" parent="1" vertex="1">
          <mxGeometry x="40" y="80" width="60" height="20" as="geometry" />
        </mxCell>
        
        <mxCell id="legend1" value="Classes/Methods" style="rounded=1;whiteSpace=wrap;html=1;fillColor=#dae8fc;strokeColor=#6c8ebf;fontSize=10;" parent="1" vertex="1">
          <mxGeometry x="40" y="110" width="100" height="30" as="geometry" />
        </mxCell>
        
        <mxCell id="legend2" value="Creators" style="rounded=1;whiteSpace=wrap;html=1;fillColor=#d5e8d4;strokeColor=#82b366;fontSize=10;" parent="1" vertex="1">
          <mxGeometry x="40" y="150" width="100" height="30" as="geometry" />
        </mxCell>
        
        <mxCell id="legend3" value="Calculations" style="rounded=0;whiteSpace=wrap;html=1;fillColor=#fff2cc;strokeColor=#d6b656;fontSize=10;" parent="1" vertex="1">
          <mxGeometry x="40" y="190" width="100" height="30" as="geometry" />
        </mxCell>
        
        <mxCell id="legend4" value="Decisions" style="rhombus;whiteSpace=wrap;html=1;fillColor=#f8cecc;strokeColor=#b85450;fontSize=10;" parent="1" vertex="1">
          <mxGeometry x="40" y="230" width="100" height="30" as="geometry" />
        </mxCell>
        
        <mxCell id="legend5" value="Constants" style="rounded=0;whiteSpace=wrap;html=1;fillColor=#e1d5e7;strokeColor=#9673a6;fontSize=10;" parent="1" vertex="1">
          <mxGeometry x="40" y="270" width="100" height="30" as="geometry" />
        </mxCell>
        
      </root>
    </mxGraphModel>
  </diagram>
</mxfile>